<svg width="215" height="188" viewBox="0 0 215 188" fill="none" xmlns="http://www.w3.org/2000/svg">
<path d="M144.59 124.722C139.513 119.586 111.955 120.595 98.3573 120.595C98.9616 121.206 98.9986 121.271 101.983 124.722C105.156 128.39 127.97 168.741 138.244 188L171.785 169.2C164.684 156.361 151.389 131.6 144.59 124.722Z" fill="#DB1959"/>
<path d="M67.8153 119.63C74.738 117.706 87.4982 92.9746 94.222 81.0179C93.3979 81.247 93.324 81.2476 88.8832 82.1657C84.1625 83.1417 38.2122 83.2497 16.5853 82.7607L16.1528 121.55C30.6952 121.655 58.5439 122.207 67.8153 119.63Z" fill="#DB1959"/>
<path d="M110.561 55.4472C108.7 62.4618 123.332 86.1079 130.126 98.024C130.348 97.189 130.385 97.1242 131.848 92.7845C133.404 88.1713 156.558 48.0184 167.915 29.3932L135.059 9.39284C127.613 22.0303 113.054 46.0527 110.561 55.4472Z" fill="#DB1959"/>
<path d="M76.6008 188L43.0596 168.741C50.0096 156.82 64.3628 132.334 66.1758 129.766L66.19 129.746C68.4634 126.526 73.574 119.288 85.2127 121.054C94.2779 122.429 101.379 133.74 103.796 139.854L76.6008 188Z" fill="#DB1959"/>
<path d="M197.963 82.3912L198.602 121.402C184.92 121.401 156.781 121.332 153.673 121.056L153.649 121.054C149.753 120.708 140.993 119.932 136.585 108.892C133.152 100.294 139.175 88.361 143.153 83.1489L197.963 82.3912Z" fill="#DB1959"/>
<path d="M47.1301 29.3921L80.3798 9.62302C87.1152 21.6704 100.909 46.483 102.202 49.3549L102.212 49.3774C103.833 52.9784 107.477 61.0737 100.149 70.3901C94.4418 77.6466 81.209 78.2176 74.7662 77.281L47.1301 29.3921Z" fill="#DB1959"/>
</svg>
